<?xml version="1.0" encoding="UTF-8"?>
<svg xmlns="http://www.w3.org/2000/svg" xmlns:xlink="http://www.w3.org/1999/xlink" width="3304.86" height="2605.38" viewBox="0 0 3304.86 2605.38">
<defs>
<clipPath id="clip-0">
<path clip-rule="nonzero" d="M 0 0 L 3304.859375 0 L 3304.859375 2605.378906 L 0 2605.378906 Z M 0 0 "/>
</clipPath>
<clipPath id="clip-1">
<path clip-rule="evenodd" d="M 1608.421875 1575.988281 C 1548.96875 1557.261719 1505.738281 1501.601562 1505.738281 1436.039062 C 1505.738281 1411.75 1525.441406 1392.050781 1549.730469 1392.050781 C 1574.019531 1392.050781 1593.71875 1411.75 1593.71875 1436.039062 C 1593.71875 1468.398438 1620.019531 1494.769531 1652.410156 1494.769531 C 1684.789062 1494.769531 1711.128906 1468.398438 1711.128906 1436.039062 C 1711.128906 1403.691406 1684.761719 1377.371094 1652.410156 1377.371094 C 1571.53125 1377.371094 1505.738281 1311.609375 1505.738281 1230.738281 C 1505.738281 1165.199219 1548.96875 1109.539062 1608.421875 1090.808594 L 1608.421875 1058.398438 C 1608.421875 1034.121094 1628.109375 1014.421875 1652.410156 1014.421875 C 1676.699219 1014.421875 1696.371094 1034.121094 1696.371094 1058.398438 L 1696.371094 1090.800781 C 1755.839844 1109.53125 1799.101562 1165.179688 1799.101562 1230.738281 C 1799.101562 1255.039062 1779.398438 1274.738281 1755.101562 1274.738281 C 1730.808594 1274.738281 1711.128906 1255.039062 1711.128906 1230.738281 C 1711.128906 1198.359375 1684.761719 1172.03125 1652.410156 1172.03125 C 1620.03125 1172.03125 1593.71875 1198.359375 1593.71875 1230.738281 C 1593.71875 1263.101562 1620.019531 1289.421875 1652.410156 1289.421875 C 1733.300781 1289.421875 1799.101562 1355.199219 1799.101562 1436.070312 C 1799.101562 1501.660156 1755.839844 1557.289062 1696.371094 1575.988281 L 1696.371094 1612.890625 C 1696.371094 1637.179688 1676.699219 1656.859375 1652.410156 1656.859375 C 1628.109375 1656.859375 1608.421875 1637.179688 1608.421875 1612.890625 Z M 1188.300781 1997.539062 L 1188.300781 1770.429688 L 1555.261719 1770.429688 L 1556.898438 1770.460938 L 1747.910156 1770.460938 L 1749.558594 1770.429688 L 2116.539062 1770.429688 L 2116.539062 1997.539062 Z M 2288.210938 781.621094 L 1016.589844 781.621094 C 992.304688 781.621094 972.605469 761.929688 972.605469 737.640625 C 972.605469 713.339844 992.304688 693.648438 1016.589844 693.648438 L 2288.210938 693.648438 C 2312.511719 693.648438 2332.210938 713.339844 2332.210938 737.640625 C 2332.210938 761.929688 2312.511719 781.621094 2288.210938 781.621094 Z M 87.960938 2517.441406 L 87.960938 2345.460938 L 3216.898438 2345.460938 L 3216.898438 2517.441406 Z M 311.570312 2257.488281 L 311.570312 2085.53125 L 2993.25 2085.53125 L 2993.25 2257.488281 Z M 1804.898438 916.121094 L 2977.960938 916.121094 L 1652.410156 95.71875 L 326.847656 916.121094 L 1499.910156 916.121094 C 1509.691406 912.558594 1519.589844 909.371094 1529.578125 906.539062 L 1531.128906 906.089844 C 1533.589844 905.390625 1536.058594 904.71875 1538.558594 904.078125 C 1541 903.421875 1543.460938 902.820312 1545.910156 902.210938 L 1546.769531 902 C 1580.648438 893.730469 1616.011719 889.328125 1652.410156 889.328125 C 1688.730469 889.328125 1724.03125 893.730469 1757.859375 901.949219 L 1759.328125 902.320312 L 1766.210938 904.070312 C 1768.710938 904.71875 1771.199219 905.390625 1773.699219 906.089844 L 1775.25 906.539062 C 1785.230469 909.371094 1795.128906 912.558594 1804.898438 916.121094 Z M 1736.851562 987.421875 L 1738.949219 987.929688 L 1743.601562 989.128906 C 1897.148438 1029.578125 2010.71875 1169.601562 2010.71875 1335.660156 C 2010.71875 1499.660156 1900.800781 1641.488281 1742.710938 1682.46875 L 1562.101562 1682.46875 C 1404.039062 1641.488281 1294.078125 1499.628906 1294.050781 1335.660156 C 1294.050781 1172.238281 1404.011719 1034.039062 1553.808594 991.121094 L 1554.398438 990.949219 L 1554.921875 990.808594 L 1560.480469 989.300781 C 1617.980469 974.148438 1679.058594 973.519531 1736.851562 987.421875 Z M 2716.890625 1997.539062 L 2508.179688 1997.539062 L 2508.179688 1004.121094 L 2716.890625 1004.121094 Z M 2420.25 1997.539062 L 2204.480469 1997.539062 L 2204.480469 1726.429688 C 2204.480469 1702.171875 2184.78125 1682.46875 2160.480469 1682.46875 L 1933.839844 1682.46875 C 2035.75 1599.910156 2098.710938 1474.101562 2098.710938 1335.628906 C 2098.710938 1204.191406 2041.578125 1085.859375 1950.859375 1004.121094 L 2420.25 1004.121094 Z M 796.628906 1997.539062 L 587.949219 1997.539062 L 587.949219 1004.121094 L 796.628906 1004.121094 Z M 884.589844 1004.121094 L 1353.96875 1004.121094 C 1263.261719 1085.859375 1206.128906 1204.191406 1206.128906 1335.628906 C 1206.128906 1474.101562 1269.078125 1599.910156 1371 1682.46875 L 1144.320312 1682.46875 C 1120.019531 1682.46875 1100.328125 1702.171875 1100.328125 1726.429688 L 1100.328125 1997.539062 L 884.589844 1997.539062 Z M 499.988281 1997.539062 L 267.589844 1997.539062 C 243.308594 1997.539062 223.609375 2017.21875 223.609375 2041.539062 L 223.609375 2257.488281 L 43.980469 2257.488281 C 19.683594 2257.488281 0 2277.191406 0 2301.488281 L 0 2561.410156 C 0 2585.710938 19.683594 2605.378906 43.980469 2605.378906 L 3260.839844 2605.378906 C 3285.140625 2605.378906 3304.839844 2585.710938 3304.859375 2561.410156 L 3304.859375 2301.488281 C 3304.859375 2277.191406 3285.160156 2257.488281 3260.898438 2257.488281 L 3081.191406 2257.488281 L 3081.191406 2041.511719 C 3081.191406 2017.21875 3061.488281 1997.539062 3037.191406 1997.539062 L 2804.820312 1997.539062 L 2804.820312 1004.121094 L 3132.558594 1004.121094 C 3132.769531 1004.121094 3132.960938 1004.121094 3133.089844 1004.121094 C 3157.410156 1004.121094 3177.078125 984.398438 3177.078125 960.121094 C 3177.078125 942.519531 3166.730469 927.359375 3151.839844 920.320312 L 1675.519531 6.578125 C 1661.351562 -2.191406 1643.421875 -2.191406 1629.230469 6.578125 L 149.054688 922.730469 C 132.363281 933.058594 124.535156 953.25 129.921875 972.148438 C 135.292969 991.058594 152.574219 1004.121094 172.234375 1004.121094 L 499.988281 1004.121094 Z M 2001.289062 598.601562 L 1303.550781 598.601562 C 1279.25 598.601562 1259.550781 578.910156 1259.550781 554.621094 C 1259.550781 530.320312 1279.25 510.640625 1303.550781 510.640625 L 2001.289062 510.640625 C 2025.578125 510.640625 2045.28125 530.320312 2045.28125 554.621094 C 2045.28125 578.910156 2025.578125 598.601562 2001.289062 598.601562 "/>
</clipPath>
<linearGradient id="linear-pattern-0" gradientUnits="userSpaceOnUse" x1="0" y1="0" x2="1" y2="0" gradientTransform="matrix(3304.86, 0, 0, 3304.86, 0, 1302.69)">
<stop offset="0" stop-color="rgb(11.372375%, 37.254333%, 37.646484%)" stop-opacity="1"/>
<stop offset="0.0078125" stop-color="rgb(11.326599%, 37.156677%, 37.547302%)" stop-opacity="1"/>
<stop offset="0.015625" stop-color="rgb(11.238098%, 36.964417%, 37.35199%)" stop-opacity="1"/>
<stop offset="0.0234375" stop-color="rgb(11.149597%, 36.77063%, 37.155151%)" stop-opacity="1"/>
<stop offset="0.03125" stop-color="rgb(11.061096%, 36.578369%, 36.959839%)" stop-opacity="1"/>
<stop offset="0.0390625" stop-color="rgb(10.971069%, 36.384583%, 36.763%)" stop-opacity="1"/>
<stop offset="0.046875" stop-color="rgb(10.882568%, 36.192322%, 36.567688%)" stop-opacity="1"/>
<stop offset="0.0546875" stop-color="rgb(10.794067%, 35.998535%, 36.37085%)" stop-opacity="1"/>
<stop offset="0.0625" stop-color="rgb(10.705566%, 35.806274%, 36.175537%)" stop-opacity="1"/>
<stop offset="0.0703125" stop-color="rgb(10.617065%, 35.612488%, 35.978699%)" stop-opacity="1"/>
<stop offset="0.078125" stop-color="rgb(10.527039%, 35.420227%, 35.783386%)" stop-opacity="1"/>
<stop offset="0.0859375" stop-color="rgb(10.438538%, 35.22644%, 35.586548%)" stop-opacity="1"/>
<stop offset="0.09375" stop-color="rgb(10.350037%, 35.03418%, 35.391235%)" stop-opacity="1"/>
<stop offset="0.101562" stop-color="rgb(10.261536%, 34.840393%, 35.194397%)" stop-opacity="1"/>
<stop offset="0.109375" stop-color="rgb(10.171509%, 34.648132%, 34.999084%)" stop-opacity="1"/>
<stop offset="0.117188" stop-color="rgb(10.083008%, 34.454346%, 34.802246%)" stop-opacity="1"/>
<stop offset="0.125" stop-color="rgb(9.994507%, 34.262085%, 34.606934%)" stop-opacity="1"/>
<stop offset="0.132812" stop-color="rgb(9.906006%, 34.068298%, 34.410095%)" stop-opacity="1"/>
<stop offset="0.140625" stop-color="rgb(9.815979%, 33.876038%, 34.214783%)" stop-opacity="1"/>
<stop offset="0.148437" stop-color="rgb(9.727478%, 33.682251%, 34.017944%)" stop-opacity="1"/>
<stop offset="0.15625" stop-color="rgb(9.638977%, 33.48999%, 33.822632%)" stop-opacity="1"/>
<stop offset="0.164062" stop-color="rgb(9.550476%, 33.296204%, 33.625793%)" stop-opacity="1"/>
<stop offset="0.171875" stop-color="rgb(9.461975%, 33.103943%, 33.430481%)" stop-opacity="1"/>
<stop offset="0.179687" stop-color="rgb(9.371948%, 32.911682%, 33.233643%)" stop-opacity="1"/>
<stop offset="0.1875" stop-color="rgb(9.283447%, 32.717896%, 33.03833%)" stop-opacity="1"/>
<stop offset="0.195312" stop-color="rgb(9.194946%, 32.525635%, 32.841492%)" stop-opacity="1"/>
<stop offset="0.203125" stop-color="rgb(9.106445%, 32.331848%, 32.646179%)" stop-opacity="1"/>
<stop offset="0.210938" stop-color="rgb(9.016418%, 32.139587%, 32.449341%)" stop-opacity="1"/>
<stop offset="0.21875" stop-color="rgb(8.927917%, 31.945801%, 32.254028%)" stop-opacity="1"/>
<stop offset="0.226562" stop-color="rgb(8.839417%, 31.75354%, 32.05719%)" stop-opacity="1"/>
<stop offset="0.234375" stop-color="rgb(8.750916%, 31.559753%, 31.861877%)" stop-opacity="1"/>
<stop offset="0.242188" stop-color="rgb(8.662415%, 31.367493%, 31.665039%)" stop-opacity="1"/>
<stop offset="0.25" stop-color="rgb(8.572388%, 31.173706%, 31.469727%)" stop-opacity="1"/>
<stop offset="0.257812" stop-color="rgb(8.483887%, 30.981445%, 31.272888%)" stop-opacity="1"/>
<stop offset="0.265625" stop-color="rgb(8.395386%, 30.787659%, 31.077576%)" stop-opacity="1"/>
<stop offset="0.273437" stop-color="rgb(8.306885%, 30.595398%, 30.880737%)" stop-opacity="1"/>
<stop offset="0.28125" stop-color="rgb(8.216858%, 30.401611%, 30.685425%)" stop-opacity="1"/>
<stop offset="0.289062" stop-color="rgb(8.128357%, 30.209351%, 30.488586%)" stop-opacity="1"/>
<stop offset="0.296875" stop-color="rgb(8.039856%, 30.015564%, 30.293274%)" stop-opacity="1"/>
<stop offset="0.304687" stop-color="rgb(7.951355%, 29.823303%, 30.096436%)" stop-opacity="1"/>
<stop offset="0.3125" stop-color="rgb(7.861328%, 29.629517%, 29.901123%)" stop-opacity="1"/>
<stop offset="0.320312" stop-color="rgb(7.772827%, 29.437256%, 29.704285%)" stop-opacity="1"/>
<stop offset="0.328125" stop-color="rgb(7.684326%, 29.243469%, 29.508972%)" stop-opacity="1"/>
<stop offset="0.335937" stop-color="rgb(7.595825%, 29.051208%, 29.312134%)" stop-opacity="1"/>
<stop offset="0.34375" stop-color="rgb(7.507324%, 28.857422%, 29.116821%)" stop-opacity="1"/>
<stop offset="0.351562" stop-color="rgb(7.417297%, 28.665161%, 28.919983%)" stop-opacity="1"/>
<stop offset="0.359375" stop-color="rgb(7.328796%, 28.471375%, 28.72467%)" stop-opacity="1"/>
<stop offset="0.367187" stop-color="rgb(7.240295%, 28.279114%, 28.527832%)" stop-opacity="1"/>
<stop offset="0.375" stop-color="rgb(7.151794%, 28.085327%, 28.33252%)" stop-opacity="1"/>
<stop offset="0.382812" stop-color="rgb(7.061768%, 27.893066%, 28.135681%)" stop-opacity="1"/>
<stop offset="0.390625" stop-color="rgb(6.973267%, 27.69928%, 27.940369%)" stop-opacity="1"/>
<stop offset="0.398438" stop-color="rgb(6.884766%, 27.507019%, 27.74353%)" stop-opacity="1"/>
<stop offset="0.40625" stop-color="rgb(6.796265%, 27.313232%, 27.548218%)" stop-opacity="1"/>
<stop offset="0.414062" stop-color="rgb(6.707764%, 27.120972%, 27.351379%)" stop-opacity="1"/>
<stop offset="0.421875" stop-color="rgb(6.617737%, 26.927185%, 27.156067%)" stop-opacity="1"/>
<stop offset="0.429688" stop-color="rgb(6.529236%, 26.734924%, 26.959229%)" stop-opacity="1"/>
<stop offset="0.4375" stop-color="rgb(6.440735%, 26.541138%, 26.763916%)" stop-opacity="1"/>
<stop offset="0.445312" stop-color="rgb(6.352234%, 26.348877%, 26.567078%)" stop-opacity="1"/>
<stop offset="0.453125" stop-color="rgb(6.262207%, 26.15509%, 26.371765%)" stop-opacity="1"/>
<stop offset="0.460938" stop-color="rgb(6.173706%, 25.96283%, 26.174927%)" stop-opacity="1"/>
<stop offset="0.46875" stop-color="rgb(6.085205%, 25.769043%, 25.979614%)" stop-opacity="1"/>
<stop offset="0.476562" stop-color="rgb(5.996704%, 25.576782%, 25.782776%)" stop-opacity="1"/>
<stop offset="0.484375" stop-color="rgb(5.906677%, 25.382996%, 25.587463%)" stop-opacity="1"/>
<stop offset="0.492188" stop-color="rgb(5.818176%, 25.190735%, 25.390625%)" stop-opacity="1"/>
<stop offset="0.5" stop-color="rgb(5.729675%, 24.996948%, 25.195312%)" stop-opacity="1"/>
<stop offset="0.507812" stop-color="rgb(5.641174%, 24.804688%, 24.998474%)" stop-opacity="1"/>
<stop offset="0.515625" stop-color="rgb(5.552673%, 24.610901%, 24.803162%)" stop-opacity="1"/>
<stop offset="0.523437" stop-color="rgb(5.462646%, 24.41864%, 24.606323%)" stop-opacity="1"/>
<stop offset="0.53125" stop-color="rgb(5.374146%, 24.224854%, 24.411011%)" stop-opacity="1"/>
<stop offset="0.539062" stop-color="rgb(5.285645%, 24.032593%, 24.214172%)" stop-opacity="1"/>
<stop offset="0.546875" stop-color="rgb(5.197144%, 23.838806%, 24.01886%)" stop-opacity="1"/>
<stop offset="0.554687" stop-color="rgb(5.107117%, 23.646545%, 23.822021%)" stop-opacity="1"/>
<stop offset="0.5625" stop-color="rgb(5.018616%, 23.452759%, 23.626709%)" stop-opacity="1"/>
<stop offset="0.570312" stop-color="rgb(4.930115%, 23.260498%, 23.429871%)" stop-opacity="1"/>
<stop offset="0.578125" stop-color="rgb(4.841614%, 23.066711%, 23.234558%)" stop-opacity="1"/>
<stop offset="0.585937" stop-color="rgb(4.753113%, 22.874451%, 23.03772%)" stop-opacity="1"/>
<stop offset="0.59375" stop-color="rgb(4.663086%, 22.680664%, 22.842407%)" stop-opacity="1"/>
<stop offset="0.601562" stop-color="rgb(4.574585%, 22.488403%, 22.645569%)" stop-opacity="1"/>
<stop offset="0.609375" stop-color="rgb(4.486084%, 22.294617%, 22.450256%)" stop-opacity="1"/>
<stop offset="0.617187" stop-color="rgb(4.397583%, 22.102356%, 22.253418%)" stop-opacity="1"/>
<stop offset="0.625" stop-color="rgb(4.307556%, 21.908569%, 22.058105%)" stop-opacity="1"/>
<stop offset="0.632812" stop-color="rgb(4.219055%, 21.716309%, 21.861267%)" stop-opacity="1"/>
<stop offset="0.640625" stop-color="rgb(4.130554%, 21.522522%, 21.665955%)" stop-opacity="1"/>
<stop offset="0.648437" stop-color="rgb(4.042053%, 21.330261%, 21.469116%)" stop-opacity="1"/>
<stop offset="0.65625" stop-color="rgb(3.952026%, 21.136475%, 21.273804%)" stop-opacity="1"/>
<stop offset="0.664062" stop-color="rgb(3.863525%, 20.944214%, 21.076965%)" stop-opacity="1"/>
<stop offset="0.671875" stop-color="rgb(3.775024%, 20.750427%, 20.881653%)" stop-opacity="1"/>
<stop offset="0.679687" stop-color="rgb(3.686523%, 20.558167%, 20.684814%)" stop-opacity="1"/>
<stop offset="0.6875" stop-color="rgb(3.598022%, 20.36438%, 20.489502%)" stop-opacity="1"/>
<stop offset="0.695312" stop-color="rgb(3.507996%, 20.172119%, 20.292664%)" stop-opacity="1"/>
<stop offset="0.703125" stop-color="rgb(3.419495%, 19.978333%, 20.097351%)" stop-opacity="1"/>
<stop offset="0.710937" stop-color="rgb(3.330994%, 19.786072%, 19.900513%)" stop-opacity="1"/>
<stop offset="0.71875" stop-color="rgb(3.242493%, 19.592285%, 19.7052%)" stop-opacity="1"/>
<stop offset="0.726562" stop-color="rgb(3.152466%, 19.400024%, 19.508362%)" stop-opacity="1"/>
<stop offset="0.734375" stop-color="rgb(3.063965%, 19.206238%, 19.313049%)" stop-opacity="1"/>
<stop offset="0.742187" stop-color="rgb(2.975464%, 19.013977%, 19.116211%)" stop-opacity="1"/>
<stop offset="0.75" stop-color="rgb(2.886963%, 18.82019%, 18.920898%)" stop-opacity="1"/>
<stop offset="0.757812" stop-color="rgb(2.798462%, 18.62793%, 18.72406%)" stop-opacity="1"/>
<stop offset="0.765625" stop-color="rgb(2.708435%, 18.434143%, 18.528748%)" stop-opacity="1"/>
<stop offset="0.773438" stop-color="rgb(2.619934%, 18.241882%, 18.331909%)" stop-opacity="1"/>
<stop offset="0.78125" stop-color="rgb(2.531433%, 18.048096%, 18.136597%)" stop-opacity="1"/>
<stop offset="0.789062" stop-color="rgb(2.442932%, 17.855835%, 17.939758%)" stop-opacity="1"/>
<stop offset="0.796875" stop-color="rgb(2.352905%, 17.662048%, 17.744446%)" stop-opacity="1"/>
<stop offset="0.804688" stop-color="rgb(2.264404%, 17.469788%, 17.547607%)" stop-opacity="1"/>
<stop offset="0.8125" stop-color="rgb(2.175903%, 17.276001%, 17.352295%)" stop-opacity="1"/>
<stop offset="0.820312" stop-color="rgb(2.087402%, 17.08374%, 17.155457%)" stop-opacity="1"/>
<stop offset="0.828125" stop-color="rgb(1.997375%, 16.889954%, 16.960144%)" stop-opacity="1"/>
<stop offset="0.835938" stop-color="rgb(1.908875%, 16.697693%, 16.763306%)" stop-opacity="1"/>
<stop offset="0.84375" stop-color="rgb(1.820374%, 16.503906%, 16.567993%)" stop-opacity="1"/>
<stop offset="0.851562" stop-color="rgb(1.731873%, 16.311646%, 16.371155%)" stop-opacity="1"/>
<stop offset="0.859375" stop-color="rgb(1.643372%, 16.119385%, 16.175842%)" stop-opacity="1"/>
<stop offset="0.867188" stop-color="rgb(1.553345%, 15.925598%, 15.979004%)" stop-opacity="1"/>
<stop offset="0.875" stop-color="rgb(1.464844%, 15.733337%, 15.783691%)" stop-opacity="1"/>
<stop offset="0.882812" stop-color="rgb(1.376343%, 15.539551%, 15.586853%)" stop-opacity="1"/>
<stop offset="0.890625" stop-color="rgb(1.287842%, 15.34729%, 15.391541%)" stop-opacity="1"/>
<stop offset="0.898438" stop-color="rgb(1.197815%, 15.153503%, 15.194702%)" stop-opacity="1"/>
<stop offset="0.90625" stop-color="rgb(1.109314%, 14.961243%, 14.99939%)" stop-opacity="1"/>
<stop offset="0.914062" stop-color="rgb(1.020813%, 14.767456%, 14.802551%)" stop-opacity="1"/>
<stop offset="0.921875" stop-color="rgb(0.932312%, 14.575195%, 14.607239%)" stop-opacity="1"/>
<stop offset="0.929688" stop-color="rgb(0.843811%, 14.381409%, 14.4104%)" stop-opacity="1"/>
<stop offset="0.9375" stop-color="rgb(0.753784%, 14.189148%, 14.215088%)" stop-opacity="1"/>
<stop offset="0.945312" stop-color="rgb(0.665283%, 13.995361%, 14.01825%)" stop-opacity="1"/>
<stop offset="0.953125" stop-color="rgb(0.576782%, 13.803101%, 13.822937%)" stop-opacity="1"/>
<stop offset="0.960938" stop-color="rgb(0.488281%, 13.609314%, 13.626099%)" stop-opacity="1"/>
<stop offset="0.96875" stop-color="rgb(0.398254%, 13.417053%, 13.430786%)" stop-opacity="1"/>
<stop offset="0.976562" stop-color="rgb(0.309753%, 13.223267%, 13.233948%)" stop-opacity="1"/>
<stop offset="0.984375" stop-color="rgb(0.221252%, 13.031006%, 13.038635%)" stop-opacity="1"/>
<stop offset="0.992188" stop-color="rgb(0.132751%, 12.837219%, 12.841797%)" stop-opacity="1"/>
<stop offset="1" stop-color="rgb(0.0442505%, 12.644958%, 12.646484%)" stop-opacity="1"/>
</linearGradient>
</defs>
<g clip-path="url(#clip-0)">
<g clip-path="url(#clip-1)">
<path fill-rule="nonzero" fill="url(#linear-pattern-0)" d="M 0 0 L 0 2605.378906 L 3304.859375 2605.378906 L 3304.859375 0 Z M 0 0 "/>
</g>
</g>
</svg>
